<!-- public/serenity-logo.svg -->
<svg width="256" height="256" viewBox="0 0 256 256" xmlns="http://www.w3.org/2000/svg" role="img" aria-label="Serenity at Home">
  <defs>
    <linearGradient id="g" x1="0" y1="0" x2="1" y2="1">
      <stop offset="0%" stop-color="#0ea5a8"></stop>
      <stop offset="100%" stop-color="#8b5cf6"></stop>
    </linearGradient>
    <filter id="s" x="-20%" y="-20%" width="140%" height="140%">
      <feDropShadow dx="0" dy="2" stdDeviation="4" flood-opacity="0.15"></feDropShadow>
    </filter>
  </defs>
  <rect x="16" y="16" width="224" height="224" rx="48" fill="url(#g)" filter="url(#s)"></rect>
  <!-- Stylized S -->
  <path d="M180 88c0-19-17-32-42-32-20 0-38 8-50 22l-14-12c16-20 41-30 64-30 38 0 66 21 66 52 0 25-14 38-45 47l-22 6c-18 5-27 10-27 22 0 12 12 21 30 21 16 0 30-6 40-16l13 13c-14 15-35 24-55 24-31 0-54-16-54-41 0-24 17-36 45-44l22-6c20-5 29-11 29-26Z" fill="#ffffff" opacity="0.95"></path>
</svg>
